<svg xmlns="http://www.w3.org/2000/svg" width="222.667" height="257.087" viewBox="0 0 223 257"><path fill="none" d="M0 225.087c0-17.6.08-32 .176-32 .2 0 110.224 63.44 110.61 63.778.14.122-24.73.222-55.266.222H0zm111.88 31.778c.387-.339 110.41-63.778 110.61-63.778.098 0 .177 14.4.177 32v32h-55.52c-30.536 0-55.406-.1-55.267-.222zm-53.547-43.69L11.467 186.1v-54.255c0-29.84.09-54.2.2-54.131 1.603.99 39.203 22.625 39.38 22.66.135.026 1.537-2.172 3.113-4.885l2.867-4.932-.713-.444c-.393-.245-9.174-5.324-19.514-11.288S17.906 67.89 17.791 67.779c-.115-.112 21.514-12.4 48.064-27.308l48.273-27.106 45.724 27.128c25.149 14.92 45.73 27.192 45.737 27.27.006.079-8.659 5.15-19.256 11.27-10.596 6.12-19.404 11.217-19.572 11.325-.342.219 5.243 10.096 5.664 10.017.133-.025 8.642-4.896 18.908-10.824C201.6 83.623 210.27 78.629 210.6 78.454l.6-.319v107.963l-46.935 27.095c-25.814 14.902-46.994 27.094-47.066 27.094-.073 0-.132-11.88-.132-26.4v-26.4H105.6v26.4c0 14.52-.09 26.392-.2 26.383-.11-.01-21.29-12.203-47.067-27.094zm27.222-38.1c2.653-.787 4.312-2.936 4.312-5.586 0-2.88-1.054-4.12-5.311-6.257-2.86-1.436-4.023-2.527-4.023-3.778 0-2.72 2.972-3.776 6.318-2.244.81.37 1.58.607 1.71.526.297-.183.307-1.729.014-2.19-.389-.613-2.924-1.392-4.53-1.392-4.314 0-7.017 2.889-6.184 6.61.441 1.974 1.657 3.15 4.968 4.808 3.22 1.612 4.104 2.512 4.104 4.182 0 3.058-3.772 4.284-7.527 2.447-1.737-.85-1.986-.873-2.199-.203-.284.895.15 1.888 1.024 2.343 2.258 1.177 4.932 1.445 7.324.735zm40.89-.338c3.557-1.558 5.288-4.965 5.288-10.407 0-5.47-2.151-8.911-6.206-9.924-1.867-.467-5.368-.21-6.994.514-2.526 1.124-4.25 3.384-4.936 6.467-.442 1.987-.217 7.15.38 8.767.948 2.56 2.539 4.086 5.124 4.914 1.809.58 5.662.406 7.344-.331zm-6.243-2.013c-1.673-.624-2.255-1.152-3.04-2.757-.641-1.31-.768-1.94-.853-4.23-.176-4.751.823-7.257 3.428-8.6 1.002-.515 1.525-.602 3.216-.533 2.638.109 3.873.867 4.929 3.024.602 1.23.757 1.968.859 4.082.289 6.004-1.632 9.01-5.933 9.284-.972.062-2.003-.045-2.606-.27zm-23.463-2.37l.073-4.733h9.309l.073 4.733.073 4.733 1.266.082 1.267.08v-20.828h-2.667v8.8h-9.32l-.073-4.334-.073-4.333H94l-.07 9.999c-.039 5.5-.01 10.156.064 10.348.09.237.541.323 1.403.268l1.27-.082zm42.135.8l.074-3.933h2.077c5.082 0 7.81-2.301 7.837-6.61.02-3.013-1.374-4.968-4.123-5.784-1.374-.408-7.166-.584-8.05-.245-.375.144-.422 1.312-.422 10.415v10.253l1.266-.081 1.267-.082zm.06-10.192v-4.193l2.528.093c2.423.088 2.563.127 3.363.927 1.34 1.341 1.521 3.853.4 5.565-.678 1.034-1.964 1.545-4.225 1.68l-2.067.122zM97.978 144.04c3.476-1.223 5.932-3.352 7.48-6.483 1.246-2.522 1.66-4.95 1.271-7.462-.76-4.91-3.965-8.184-9.468-9.668l-2.072-.558 5.472-6.334 5.471-6.334v-3.447H81.867v4.8h17.075l-.777.733c-.797.752-9.888 11.388-10.27 12.015-.122.202.037.96.378 1.8l.589 1.452 1.902.005c2.277.006 5.056.557 6.486 1.286 1.415.722 3.181 2.698 3.528 3.948.707 2.546.087 5.28-1.589 7.007-3.6 3.71-9.898 3.38-14.932-.782l-1.21-1-1.522 2.149c-1.783 2.515-1.835 2.34 1.321 4.45 2.065 1.381 4.062 2.234 6.62 2.827 2.237.517 6.465.317 8.513-.403zm34.421-.658c3.257-.937 5.972-2.518 8.282-4.82 2.43-2.423 3.72-4.62 4.704-8.02.534-1.844.614-2.714.614-6.655 0-3.94-.08-4.81-.614-6.654-2.09-7.222-7.555-11.945-15.267-13.196-.945-.154-5.349-.28-9.786-.281l-8.066-.002v40.304l9.266-.108c7.759-.09 9.527-.182 10.867-.568zm-14.267-19.532v-15.37l5.134.148c3.466.1 5.652.287 6.733.578 4.76 1.282 7.815 4.133 9.505 8.87.758 2.124.974 7.45.41 10.103-.907 4.266-3.333 7.531-6.908 9.298-2.626 1.298-5.209 1.723-10.54 1.734l-4.334.01zm-2.335-28.246c4.055-1.386 6.388-6.595 5.598-12.498-.376-2.813-1.082-4.472-2.533-5.955-1.485-1.516-3.4-2.222-6.081-2.24-1.13-.007-2.459.075-2.952.181-1.368.296-3.201 1.314-4.149 2.305-3.223 3.367-3.642 11.413-.812 15.575.964 1.417 2.894 2.65 4.768 3.045 1.548.327 4.594.123 6.161-.413zm-5.265-1.952c-2.09-.546-3.214-1.607-4.044-3.814-.615-1.638-.613-6.85.003-8.466 1.223-3.203 3.81-4.643 7.191-4.002 2.673.507 4.135 2.265 4.732 5.692.78 4.477-.565 8.673-3.21 10.023-1.172.598-3.483.878-4.672.567zm-15.22 2.208c.373-.143.421-1.205.421-9.2v-9.04h2.75c3.146 0 3.747-.247 3.607-1.48l-.09-.787-7.667-.07-7.666-.072-.032.605c-.05.943.06 1.387.392 1.6.168.107 1.536.197 3.04.2l2.733.004v8.88c0 6.55.084 8.964.32 9.2.342.341 1.496.425 2.192.158zm33.168-.158c.218-.218.32-1.494.32-4v-3.68h1.72c3.867 0 6.085-1.115 7.435-3.736.674-1.31.742-1.671.639-3.414-.096-1.618-.25-2.14-.9-3.067-.431-.614-1.319-1.417-1.972-1.783-1.091-.612-1.512-.675-5.132-.758-2.82-.066-4.054 0-4.333.232-.33.274-.39 1.864-.39 10.27 0 7.706.075 9.975.333 10.079.639.258 1.962.174 2.28-.143zm.32-14.251V77.28l2.269.141c1.461.091 2.51.3 2.946.586 2.334 1.53 2.267 5.414-.121 7.01-.75.5-1.267.605-3 .605H128.8zM0 32.05V.02l57 .003 57 .003-1.333.76C105.027 5.137.732 63.795.419 63.915.04 64.064 0 61.066 0 32.05zm168.667.21l-54-31.986c-.235-.139 22.046-.24 53.8-.245l54.2-.008v32c0 17.6-.09 31.997-.2 31.993-.11-.003-24.32-14.293-53.8-31.754z"/><path fill="#e02026" d="M96.644 170.287c0-2.64.04-3.684.088-2.32a78.923 78.923 0 0 1 0 4.8c-.05 1.276-.089.16-.089-2.48zm19.055 2.867c-.331-.423-.322-.432.101-.1.257.2.467.41.467.466 0 .22-.22.078-.568-.366zm-38.59-.6c0-.367.06-.517.134-.333.074.183.074.483 0 .666-.074.184-.134.034-.134-.333zm9.845-2.822c.013-.31.076-.374.161-.161.078.192.068.422-.02.51-.09.09-.152-.068-.14-.35zm29.108-4.911c0-.514.055-.724.122-.467a2.19 2.19 0 0 1 0 .933c-.067.257-.122.047-.122-.466zm-19.42-6c0-2.347.04-3.271.09-2.054.05 1.217.05 3.137 0 4.266-.05 1.13-.091.134-.09-2.212zm52.18 1.577c.012-.31.075-.373.16-.16.077.192.068.422-.02.51-.09.089-.152-.069-.14-.35zm-19.79-4.044c-.331-.423-.322-.432.101-.1.445.348.586.567.366.567-.055 0-.265-.21-.466-.467zm10.635.274a8.48 8.48 0 0 1 1.733 0c.477.059.087.107-.867.107-.953 0-1.343-.048-.866-.107zm-55.45-.256c.192-.077.422-.068.51.02.09.09-.068.152-.35.14-.31-.012-.373-.075-.16-.16zm5.25-11.929c-2.56-.593-4.556-1.445-6.62-2.826-3.157-2.11-3.105-1.936-1.322-4.45l1.522-2.149 1.21 1c4.061 3.357 9.106 4.281 12.887 2.36 3.082-1.564 4.593-5.134 3.634-8.585-.347-1.25-2.113-3.226-3.528-3.948-1.43-.73-4.209-1.28-6.486-1.286l-1.902-.005-.59-1.452c-.34-.84-.5-1.599-.376-1.8.381-.627 9.472-11.263 10.269-12.015l.777-.733H81.867v-4.8h24.266v3.446l-5.471 6.334-5.472 6.335 2.072.558c5.503 1.484 8.708 4.757 9.468 9.668.743 4.8-1.846 10.268-6.021 12.715-2.983 1.748-7.754 2.44-11.242 1.633zm22.8-20.537v-20.152l8.066.002c4.437 0 8.84.127 9.786.28 7.712 1.252 13.176 5.975 15.267 13.197.534 1.843.614 2.714.614 6.654 0 5.165-.424 7.22-2.2 10.655-1.44 2.79-4.592 5.832-7.533 7.27-4.033 1.974-4.338 2.018-14.734 2.138l-9.266.108v-20.152zm16.657 14.918c5.774-1.03 9.769-4.898 10.991-10.645.564-2.652.348-7.98-.41-10.103-1.69-4.737-4.745-7.588-9.505-8.87-1.08-.29-3.267-.479-6.733-.578l-5.134-.148v30.74l4.334-.008c2.522-.005 5.22-.168 6.457-.388zm-18.04-42.719c.192-.077.422-.067.51.021.089.089-.068.152-.35.14-.31-.013-.373-.076-.16-.16zm1.866 0c.192-.077.422-.067.511.021.089.089-.069.152-.35.14-.31-.013-.374-.076-.161-.16zM92.863 86.63l-.063-8.991-2.867-.086-2.866-.086 2.875-.056c2.106-.042 2.91.033 3.003.278.071.185.096 4.295.055 9.134l-.074 8.798zm35.776 5.124c0-2.127.042-2.997.092-1.933.05 1.063.05 2.803 0 3.866-.05 1.064-.092.194-.092-1.933zm.012-6.212c-.073-.19-.096-2.08-.05-4.2l.082-3.855.058 4.054.059 4.053 1.533.096 1.534.096-1.542.05c-1.055.035-1.584-.058-1.674-.294zm-31.508-8.119a26.863 26.863 0 0 1 2.933.001c.765.054.07.097-1.543.097s-2.239-.045-1.39-.098z"/><path fill="#1c1c1a" d="M55.699 224.994L.133 192.922V64.193L57.13 32.096 114.127 0l54.203 32.093 54.203 32.094V192.92l-54.666 31.567c-30.067 17.361-55.102 31.793-55.635 32.071l-.967.506zm49.901-11.107v-26.4h11.467v26.4c0 14.52.09 26.396.2 26.391.11-.005 21.26-12.17 47-27.035l46.8-27.026.067-54.054c.037-30.151-.034-54.015-.162-53.965-.127.05-8.852 5.07-19.39 11.156-10.538 6.087-19.22 11.051-19.295 11.033-.073-.02-1.394-2.222-2.934-4.896-2.593-4.5-2.765-4.887-2.325-5.209.262-.191 9.048-5.295 19.524-11.34 10.476-6.047 19.046-11.068 19.043-11.158-.003-.09-20.583-12.38-45.735-27.311l-45.73-27.148-48.155 27.04C39.49 55.237 17.813 67.513 17.803 67.646c-.009.133 8.724 5.288 19.407 11.457 10.682 6.168 19.464 11.34 19.515 11.493.051.153-.494 1.286-1.21 2.518l-2.805 4.818-1.502 2.578-19.804-11.434L11.6 77.642l-.071 54.19-.072 54.189.562.38c1.045.711 93.18 53.868 93.381 53.877.11.005.2-11.87.2-26.39zm-25.422-38.765c-1.968-.555-2.696-1.214-2.793-2.528-.098-1.314.035-1.342 1.89-.4 1.827.927 4.492 1.155 5.867.503 1.241-.59 1.88-1.589 1.88-2.943 0-1.672-.645-2.36-3.644-3.887-3.434-1.75-4.314-2.412-5.007-3.77-.682-1.337-.75-3.763-.137-4.947.949-1.834 3.215-2.996 5.842-2.996 1.444 0 3.535.606 4.216 1.223.536.485.706 2.09.251 2.37-.14.088-.837-.135-1.548-.495-1.709-.866-2.94-1.072-4.272-.713-1.388.374-2.19 1.365-2.19 2.708 0 1.51 1.129 2.629 4.145 4.105 1.386.68 2.886 1.542 3.333 1.918 3.133 2.637 2.176 7.93-1.727 9.56-1.427.597-4.505.744-6.106.292zm39.647.104a7.917 7.917 0 0 1-5.853-5.266c-.774-2.358-.71-8.172.114-10.245.8-2.014 2.391-3.763 4.257-4.68 1.376-.675 1.795-.748 4.324-.748 2.372 0 3.012.096 4.194.63 1.783.807 3.299 2.457 4.094 4.459.55 1.383.628 2.023.628 5.178 0 3.133-.08 3.8-.614 5.142-1.44 3.618-4.051 5.486-7.92 5.668-1.164.054-2.614-.007-3.224-.138zm6.125-3.1c.76-.526 1.372-1.282 1.917-2.372.765-1.532.8-1.748.8-5.067 0-3.197-.056-3.584-.71-4.98-1.026-2.188-2.323-2.99-5.04-3.113-2.435-.111-3.495.288-4.9 1.843-1.255 1.39-1.839 3.477-1.83 6.546.009 3.15.627 5.185 1.99 6.547 1.258 1.258 2.244 1.563 4.706 1.455 1.635-.073 2.13-.211 3.067-.859zm-31.962 2.76c-.07-.184-.096-4.834-.058-10.333l.07-10 1.26-.08 1.26-.081.073 4.348.074 4.347 4.726.073 4.727.073.073-4.34.074-4.339 1.27-.081 1.27-.082-.07 10.348-.07 10.348h-2.4l-.073-4.733-.073-4.733h-9.588v9.6h-1.208c-.723 0-1.26-.135-1.337-.335zm42.469.17c-.105-.105-.19-4.647-.19-10.093 0-7.346.082-9.985.32-10.222.408-.409 5.795-.433 7.653-.034 3.102.665 4.688 2.857 4.518 6.24-.131 2.592-1.09 4.205-3.166 5.33-1.267.686-1.8.805-4.052.898l-2.593.107-.073 3.903-.074 3.902-1.076.08c-.592.043-1.162-.006-1.267-.112zm7.28-10.569c1.514-.767 2.244-2.002 2.243-3.789-.002-2.71-1.304-3.818-4.776-4.063l-2.27-.16v8.612h1.81c1.348 0 2.111-.153 2.993-.6zM110.077 96c-4.041-.592-6.292-3.227-6.921-8.104-.365-2.827 0-5.95.937-7.994 1.49-3.254 3.837-4.728 7.806-4.901 3.412-.15 5.095.392 6.944 2.234 1.088 1.084 1.488 1.732 1.906 3.084 1.924 6.229.188 12.673-3.982 14.786-1.016.515-4.377 1.28-5.034 1.145-.073-.015-.818-.127-1.656-.25zm3.906-2.402c2.926-.737 4.684-3.772 4.684-8.086 0-3.535-1.038-6.212-2.855-7.365-3.283-2.082-7.622-.808-9.122 2.678-1.143 2.66-1.012 7.668.266 10.175 1.176 2.304 4.02 3.355 7.027 2.598zm-20.79 2.09c-.07-.183-.155-4.353-.192-9.266l-.068-8.934-3.133-.075-3.133-.075v-2.116h7.582c7.348 0 7.587.016 7.751.533.093.293.093.773 0 1.067-.156.492-.403.533-3.218.533h-3.049v9.171c0 8.118-.048 9.19-.421 9.334-.727.279-1.99.176-2.12-.172zm33.007.163c-.473-.2-.485-19.837-.013-20.31.462-.461 6.71-.425 8.285.049 2.84.855 4.049 2.576 4.049 5.765 0 4.244-2.383 6.342-7.51 6.61l-2.464.129-.073 3.897-.074 3.897-.933.052c-.514.029-1.084-.011-1.267-.089zm7.474-10.69c.471-.276 1.138-.915 1.482-1.42.528-.778.608-1.176.522-2.581-.086-1.396-.227-1.792-.878-2.471-.954-.996-2.307-1.383-4.475-1.28l-1.658.08-.075 3.854c-.04 2.12-.008 4.027.073 4.238.214.556 3.86.25 5.009-.42z"/></svg>