<svg xmlns="http://www.w3.org/2000/svg" width="213" height="73" viewBox="0 0 526.107 156.96"><path d="M189.464 43.766q7.358 0 7.358 5.723a5.851 5.851 0 01-1.482 4.053 7.128 7.128 0 01-4.173 2.146v.17a5.58 5.58 0 013.006 1.883 5.05 5.05 0 011.048 3.21 6.827 6.827 0 01-2.59 5.664 10.849 10.849 0 01-6.931 2.052h-7.886l5.263-24.901h6.387zm-8.227 22.431h4.531a7.232 7.232 0 004.735-1.371 4.754 4.754 0 001.652-3.875 3.697 3.697 0 00-1.269-3.023 5.605 5.605 0 00-3.653-1.047h-4.02zm2.504-11.769h4.224a6.682 6.682 0 004.241-1.244 4.076 4.076 0 001.584-3.389 3.14 3.14 0 00-1.133-2.648 5.834 5.834 0 00-3.568-.878h-3.593zM207.62 49.659a4.812 4.812 0 012.793.843 5.481 5.481 0 011.907 2.427h.188l1.141-2.93h2.163l-3.969 18.668h-2.265l.443-3.56h-.136q-3.05 3.9-6.422 3.9a4.488 4.488 0 01-3.712-1.686 7.205 7.205 0 01-1.346-4.616 17.585 17.585 0 011.21-6.574 11.359 11.359 0 013.338-4.752 7.261 7.261 0 014.667-1.72zm-3.237 16.981a4.793 4.793 0 003.287-1.576 11.672 11.672 0 002.658-4.104 13.436 13.436 0 001.022-5.067 3.972 3.972 0 00-.954-2.794 3.24 3.24 0 00-2.504-1.039 4.689 4.689 0 00-3.296 1.465 9.885 9.885 0 00-2.393 3.968 15.997 15.997 0 00-.868 5.28 4.46 4.46 0 00.8 2.905 2.761 2.761 0 002.248.962zM234.426 50l-2.504 11.803a13.415 13.415 0 00-.307 2.3 2.915 2.915 0 00.52 1.839 2.175 2.175 0 001.814.664 4.575 4.575 0 002.785-1.022 8.897 8.897 0 002.384-2.921 16.849 16.849 0 001.593-4.573l1.703-8.09h2.861l-3.968 18.667h-2.368l.375-3.458h-.17a10.667 10.667 0 01-2.955 2.913 5.828 5.828 0 01-3.041.886 3.865 3.865 0 01-2.963-1.108 5.034 5.034 0 01-1.226-3.065h-.137a10.937 10.937 0 01-3.091 3.125 6.243 6.243 0 01-3.364 1.048 4.586 4.586 0 01-3.347-1.159 4.508 4.508 0 01-1.183-3.372 16.189 16.189 0 01.374-3.032L220.664 50h2.895l-2.52 11.804a14.874 14.874 0 00-.341 2.47 2.145 2.145 0 002.435 2.333 4.528 4.528 0 002.691-.971 8.707 8.707 0 002.368-2.81 15.178 15.178 0 001.567-4.31L231.58 50h2.845zM261.811 49.693a6.69 6.69 0 015.178 1.924 7.997 7.997 0 011.77 5.604 15.881 15.881 0 01-1.166 6.31 8.905 8.905 0 01-3.287 4.097 9.053 9.053 0 01-5.05 1.38 12.701 12.701 0 01-2.461-.247 7.863 7.863 0 01-1.933-.588V65.6a11.666 11.666 0 004.394 1.005 5.615 5.615 0 004.14-1.652 8.43 8.43 0 002.18-4.616h-8.194l.495-2.52h7.988v-.494a6.119 6.119 0 00-1.073-3.995 3.98 3.98 0 00-3.22-1.269 10.41 10.41 0 00-4.121.971l-.869-2.197a13.1 13.1 0 015.23-1.14zM284.559 50h3.628l-9.351 9.214 6.387 9.453h-3.457l-6.064-9.317-1.959 9.317h-2.861l3.952-18.668h2.827l-1.925 9.01zM294.27 69.008a6.338 6.338 0 01-6.949-6.967 15.486 15.486 0 011.261-6.284 10.667 10.667 0 013.483-4.489 8.318 8.318 0 015-1.609 12.482 12.482 0 014.564.869l-.8 2.401a9.637 9.637 0 00-3.73-.869 5.339 5.339 0 00-3.484 1.304 8.58 8.58 0 00-2.47 3.627 13.964 13.964 0 00-.894 5.05 4.764 4.764 0 001.133 3.39 4.072 4.072 0 003.125 1.209 7.711 7.711 0 002.317-.34 21.2 21.2 0 002.146-.801v2.435a10.23 10.23 0 01-4.701 1.074zM313.18 68.667l2.52-11.786a15.552 15.552 0 00.341-2.453 2.42 2.42 0 00-.604-1.72 2.538 2.538 0 00-1.933-.648 5.049 5.049 0 00-2.956 1.022 9.089 9.089 0 00-2.538 2.913 15.33 15.33 0 00-1.66 4.581l-1.72 8.09h-2.862L305.754 50h2.367l-.374 3.458h.17a11.396 11.396 0 013.16-2.938 6.347 6.347 0 013.159-.86 4.768 4.768 0 013.415 1.184 4.34 4.34 0 011.252 3.313 13.97 13.97 0 01-.392 3.065l-2.436 11.446h-2.895zM328.497 69.008a6.515 6.515 0 01-4.922-1.857 7.106 7.106 0 01-1.789-5.144 15.326 15.326 0 011.27-6.14 11.366 11.366 0 013.363-4.573 7.332 7.332 0 014.616-1.635 5.856 5.856 0 013.917 1.132 3.952 3.952 0 011.312 3.16 5.398 5.398 0 01-2.827 4.811q-2.828 1.747-8.09 1.747h-.563l-.068 1.362a5.27 5.27 0 001.047 3.483 3.992 3.992 0 003.245 1.252 8.42 8.42 0 002.206-.307 16.871 16.871 0 002.818-1.124v2.487a15.377 15.377 0 01-2.827 1.047 11.466 11.466 0 01-2.708.299zm2.367-16.914a4.55 4.55 0 00-3.295 1.602 10.454 10.454 0 00-2.359 4.445h.204a13.908 13.908 0 005.953-1.013 3.181 3.181 0 002.07-2.939 1.99 1.99 0 00-.622-1.498 2.736 2.736 0 00-1.95-.596zM345.853 69.008a5 5 0 01-2.896-.852 5.53 5.53 0 01-1.925-2.385h-.17l-.068.648q-.051.425-.18 1.192-.127.766-1.95 9.436h-2.826l5.722-27.048h2.368l-.443 3.56h.136q3.049-3.866 6.336-3.866a4.48 4.48 0 013.68 1.66 7.217 7.217 0 011.345 4.659 18.088 18.088 0 01-1.176 6.625 10.997 10.997 0 01-3.253 4.693 7.284 7.284 0 01-4.7 1.678zm3.168-16.948a4.927 4.927 0 00-3.33 1.618A11.535 11.535 0 00343 57.75a13.24 13.24 0 00-.997 5.025 4.013 4.013 0 00.945 2.87 3.59 3.59 0 002.734.996 4.506 4.506 0 003.143-1.38 9.693 9.693 0 002.342-3.926 16.345 16.345 0 00.885-5.407q0-3.866-3.031-3.867zM367.845 68.667l2.52-11.786a13.99 13.99 0 00.307-2.3 2.915 2.915 0 00-.528-1.856 2.18 2.18 0 00-1.806-.665 4.578 4.578 0 00-2.784 1.022 8.889 8.889 0 00-2.384 2.921 16.85 16.85 0 00-1.593 4.573l-1.72 8.09h-2.862L360.981 50h2.367l-.374 3.458h.17a10.678 10.678 0 012.955-2.912 5.828 5.828 0 013.04-.886 3.867 3.867 0 012.964 1.107 5.064 5.064 0 011.226 3.083h.136a10.938 10.938 0 013.117-3.16 6.252 6.252 0 013.338-1.03 4.586 4.586 0 013.347 1.158 4.51 4.51 0 011.184 3.372 16.228 16.228 0 01-.375 3.032l-2.452 11.446h-2.896l2.521-11.786a15.477 15.477 0 00.34-2.487 2.145 2.145 0 00-2.435-2.334 4.576 4.576 0 00-2.725.988 8.604 8.604 0 00-2.36 2.802 15.304 15.304 0 00-1.54 4.3l-1.823 8.517h-2.861zM184.167 89.241l-1.652 7.819h9.112l1.669-7.819h2.862l-3.935 18.668h-2.895l1.771-8.414h-9.095l-1.789 8.414h-2.86l3.984-18.668h2.828zM207.402 88.902a4.809 4.809 0 012.793.842 5.482 5.482 0 011.908 2.427h.188l1.14-2.93h2.164l-3.969 18.668h-2.265l.443-3.56h-.136q-3.05 3.9-6.422 3.901a4.489 4.489 0 01-3.713-1.686 7.207 7.207 0 01-1.345-4.616 17.586 17.586 0 011.21-6.575 11.365 11.365 0 013.337-4.752 7.263 7.263 0 014.667-1.72zm-3.236 16.98a4.793 4.793 0 003.287-1.575 11.677 11.677 0 002.657-4.105 13.438 13.438 0 001.022-5.067 3.97 3.97 0 00-.954-2.793 3.24 3.24 0 00-2.503-1.039 4.689 4.689 0 00-3.296 1.465 9.883 9.883 0 00-2.393 3.968 16 16 0 00-.869 5.28 4.462 4.462 0 00.801 2.904 2.76 2.76 0 002.248.962zM233.732 108.25a5 5 0 01-2.896-.851 5.535 5.535 0 01-1.925-2.385h-.17l-.068.647q-.051.425-.18 1.192-.127.767-1.95 9.436h-2.827l5.723-27.048h2.368l-.443 3.561h.136q3.048-3.867 6.336-3.866a4.48 4.48 0 013.68 1.66 7.219 7.219 0 011.344 4.658 18.091 18.091 0 01-1.175 6.626 10.997 10.997 0 01-3.253 4.693 7.287 7.287 0 01-4.7 1.677zm3.168-16.947a4.925 4.925 0 00-3.33 1.618 11.538 11.538 0 00-2.691 4.07 13.241 13.241 0 00-.997 5.025 4.014 4.014 0 00.945 2.87 3.591 3.591 0 002.734.996 4.507 4.507 0 003.143-1.379 9.691 9.691 0 002.342-3.927 16.344 16.344 0 00.885-5.407q0-3.866-3.032-3.866zM251.523 89.241l-1.754 8.176a19.39 19.39 0 013.73-.426 6.27 6.27 0 014.3 1.278 4.648 4.648 0 011.422 3.645 5.914 5.914 0 01-1.907 4.607 7.573 7.573 0 01-5.28 1.73 6.5 6.5 0 01-4.446-1.372 5.008 5.008 0 01-1.55-3.96 14.57 14.57 0 01.392-3.305l2.198-10.373h2.895zm1.209 10.152a17.718 17.718 0 00-3.491.358 15.828 15.828 0 00-.375 2.862 3.242 3.242 0 00.826 2.443 3.535 3.535 0 002.53.792 4.39 4.39 0 003.065-1.005 3.456 3.456 0 001.107-2.69 2.514 2.514 0 00-.834-2.104 4.662 4.662 0 00-2.828-.656zm11.208 8.516h-2.828l3.934-18.668h2.862zM276.087 89.241l-1.653 7.819h9.112l1.67-7.819h2.861l-3.934 18.668h-2.896l1.772-8.414h-9.096l-1.788 8.414h-2.861l3.985-18.668h2.828zM303.12 89.241h3.628l-9.351 9.215 6.387 9.453h-3.457l-6.064-9.316-1.959 9.316h-2.861l3.952-18.668h2.827l-1.925 9.011zM312.593 108.25a6.515 6.515 0 01-4.922-1.856 7.108 7.108 0 01-1.789-5.145 15.325 15.325 0 011.27-6.14 11.36 11.36 0 013.363-4.573 7.332 7.332 0 014.616-1.634 5.856 5.856 0 013.917 1.131 3.953 3.953 0 011.312 3.16 5.399 5.399 0 01-2.827 4.812q-2.828 1.746-8.09 1.746h-.563l-.068 1.363a5.268 5.268 0 001.047 3.482 3.992 3.992 0 003.245 1.252 8.4 8.4 0 002.206-.307 16.871 16.871 0 002.818-1.124v2.488a15.371 15.371 0 01-2.827 1.047 11.44 11.44 0 01-2.708.298zm2.368-16.913a4.55 4.55 0 00-3.296 1.6 10.457 10.457 0 00-2.359 4.446h.204a13.917 13.917 0 005.953-1.013 3.182 3.182 0 002.07-2.938 1.99 1.99 0 00-.622-1.5 2.736 2.736 0 00-1.95-.595z" fill="#04080a"/><path d="M347.915 88.17a6.369 6.369 0 01-1.72 4.504 8.278 8.278 0 01-4.77 2.393v.153a5.518 5.518 0 013.322 1.814 5.292 5.292 0 011.21 3.551 7.505 7.505 0 01-1.056 3.994 7.082 7.082 0 01-3.083 2.7 11.06 11.06 0 01-4.82.971 15.764 15.764 0 01-6.558-1.345v-2.794a15.504 15.504 0 003.39 1.286 13.352 13.352 0 003.235.45 6.269 6.269 0 004.293-1.353 4.69 4.69 0 001.533-3.705 4.201 4.201 0 00-1.346-3.38 5.595 5.595 0 00-3.747-1.15h-2.231l.528-2.435h2.367a7.247 7.247 0 004.667-1.482 4.714 4.714 0 001.857-3.866 3.234 3.234 0 00-.988-2.487 3.768 3.768 0 00-2.674-.92 8.022 8.022 0 00-2.674.46 13.557 13.557 0 00-2.981 1.584l-1.362-2.01a11.905 11.905 0 017.221-2.452 6.875 6.875 0 014.718 1.481 5.124 5.124 0 011.67 4.037zM370.052 92.972a16.64 16.64 0 01-1.788 7.852 12.509 12.509 0 01-5.11 5.246 15.807 15.807 0 01-7.784 1.84h-5.995l5.263-24.902h5.825q4.7 0 7.145 2.547 2.444 2.546 2.444 7.417zm-14.494 12.434a11.553 11.553 0 006.046-1.56 10.225 10.225 0 003.994-4.401 14.656 14.656 0 001.388-6.507 7.857 7.857 0 00-1.754-5.544 6.696 6.696 0 00-5.144-1.882h-3.031l-4.259 19.894h2.76z" fill="#e01f26"/><path d="M372.592 99.921l.596-2.725h14.017l-.579 2.725h-14.034zM400.22 107.91l2.521-11.787a13.988 13.988 0 00.307-2.3 2.915 2.915 0 00-.528-1.856 2.181 2.181 0 00-1.806-.664 4.58 4.58 0 00-2.784 1.021 8.894 8.894 0 00-2.384 2.921 16.85 16.85 0 00-1.593 4.574l-1.72 8.09h-2.862l3.986-18.668h2.367l-.374 3.458h.17a10.664 10.664 0 012.955-2.912 5.824 5.824 0 013.04-.885 3.869 3.869 0 012.964 1.106 5.064 5.064 0 011.226 3.083h.136a10.936 10.936 0 013.117-3.16 6.247 6.247 0 013.338-1.03 4.584 4.584 0 013.347 1.159 4.51 4.51 0 011.184 3.372 16.22 16.22 0 01-.375 3.031L414 107.91h-2.896l2.521-11.786a15.48 15.48 0 00.34-2.487 2.145 2.145 0 00-2.435-2.333 4.576 4.576 0 00-2.725.987 8.61 8.61 0 00-2.36 2.802 15.315 15.315 0 00-1.54 4.3l-1.823 8.517h-2.861zM426.391 108.25a6.515 6.515 0 01-4.922-1.856 7.108 7.108 0 01-1.789-5.145 15.325 15.325 0 011.27-6.14 11.36 11.36 0 013.363-4.573 7.332 7.332 0 014.616-1.634 5.856 5.856 0 013.917 1.131 3.953 3.953 0 011.312 3.16 5.399 5.399 0 01-2.827 4.812q-2.828 1.746-8.09 1.746h-.563l-.068 1.363a5.268 5.268 0 001.047 3.482 3.992 3.992 0 003.245 1.252 8.4 8.4 0 002.206-.307 16.871 16.871 0 002.818-1.124v2.488a15.371 15.371 0 01-2.827 1.047 11.44 11.44 0 01-2.708.298zm2.367-16.913a4.55 4.55 0 00-3.295 1.6 10.457 10.457 0 00-2.359 4.446h.204a13.917 13.917 0 005.953-1.013 3.182 3.182 0 002.07-2.938 1.99 1.99 0 00-.622-1.5 2.736 2.736 0 00-1.95-.595zM443.192 100.517l-5.893 7.392h-3.321l8.09-9.623-4.07-9.044h2.895l2.963 7.017 5.62-7.017h3.305l-7.75 9.18 4.292 9.487h-2.861zM459.068 89.241l-1.652 7.819h9.112l1.669-7.819h2.862l-3.935 18.668h-2.895L466 99.495h-9.095l-1.789 8.414h-2.861l3.985-18.668h2.828zM479.06 89.241l-2.556 11.838a12.797 12.797 0 00-.306 2.368 2.183 2.183 0 002.503 2.435 5.07 5.07 0 002.947-1.021 9.095 9.095 0 002.555-2.93 15.714 15.714 0 001.686-4.599l1.703-8.09h2.827l-3.934 18.667h-2.367l.374-3.458h-.204a11.185 11.185 0 01-3.185 2.964 6.417 6.417 0 01-3.134.835 4.758 4.758 0 01-3.424-1.184 4.446 4.446 0 01-1.243-3.381 15.948 15.948 0 01.375-2.929l2.487-11.515h2.895zM505.462 89.241h3.628l-9.35 9.215 6.387 9.453h-3.458l-6.063-9.316-1.96 9.316h-2.86l3.95-18.668h2.828l-1.925 9.011zM514.747 89.241l-2.556 11.838a12.797 12.797 0 00-.306 2.368 2.183 2.183 0 002.504 2.435 5.07 5.07 0 002.947-1.021 9.095 9.095 0 002.554-2.93 15.714 15.714 0 001.686-4.599l1.704-8.09h2.827l-3.935 18.667h-2.367l.375-3.458h-.205a11.185 11.185 0 01-3.184 2.964 6.417 6.417 0 01-3.135.835 4.758 4.758 0 01-3.423-1.184 4.446 4.446 0 01-1.243-3.381 15.948 15.948 0 01.374-2.929l2.487-11.514h2.896zM53.827 104.606a3.052 3.052 0 01-1.192 2.563 5.17 5.17 0 01-3.237.92 8.094 8.094 0 01-3.406-.57v-1.397a9.085 9.085 0 001.67.51 8.727 8.727 0 001.788.188 3.608 3.608 0 002.18-.55 1.8 1.8 0 00.732-1.528 1.956 1.956 0 00-.26-1.06 2.419 2.419 0 00-.868-.762 12.266 12.266 0 00-1.853-.792 5.915 5.915 0 01-2.482-1.474 3.253 3.253 0 01-.745-2.222 2.765 2.765 0 011.081-2.291 4.489 4.489 0 012.862-.852 8.443 8.443 0 013.415.682l-.452 1.26a7.703 7.703 0 00-2.997-.647 2.896 2.896 0 00-1.797.494 1.629 1.629 0 00-.647 1.37 2.101 2.101 0 00.238 1.061 2.245 2.245 0 00.805.758 10.054 10.054 0 001.733.762 6.856 6.856 0 012.695 1.499 2.95 2.95 0 01.737 2.078zM65.845 107.919h-1.448v-5.86H57.84v5.86h-1.448v-12.45h1.448v5.296h6.557v-5.297h1.448v12.45zM80.223 101.676a6.853 6.853 0 01-1.511 4.701 5.315 5.315 0 01-4.203 1.712 5.379 5.379 0 01-4.245-1.682 6.911 6.911 0 01-1.495-4.748 6.822 6.822 0 011.5-4.713 5.42 5.42 0 014.257-1.674 5.306 5.306 0 014.19 1.703 6.845 6.845 0 011.507 4.701zm-9.92 0a5.906 5.906 0 001.076 3.837 3.825 3.825 0 003.13 1.307 3.785 3.785 0 003.126-1.303 7.471 7.471 0 00.004-7.652 3.767 3.767 0 00-3.113-1.298 3.845 3.845 0 00-3.147 1.307 5.846 5.846 0 00-1.077 3.802zM91.052 99.096a3.488 3.488 0 01-1.29 2.908 5.84 5.84 0 01-3.692 1.018h-1.465v4.897h-1.448v-12.45h3.228q4.667 0 4.667 3.627zm-6.447 2.682h1.303a4.838 4.838 0 002.785-.621 2.292 2.292 0 00.86-1.993 2.145 2.145 0 00-.81-1.84 4.232 4.232 0 00-2.52-.604h-1.618v5.059zM57.548 58.854h-1.447V47.69h-3.943v-1.286h9.333v1.286h-3.943v11.164zM74.067 52.612a6.853 6.853 0 01-1.511 4.7 5.315 5.315 0 01-4.203 1.713 5.379 5.379 0 01-4.245-1.682 6.911 6.911 0 01-1.495-4.748 6.822 6.822 0 011.5-4.714 5.42 5.42 0 014.257-1.673 5.306 5.306 0 014.19 1.703 6.845 6.845 0 011.507 4.701zm-9.92 0a5.906 5.906 0 001.076 3.836 3.825 3.825 0 003.13 1.308 3.785 3.785 0 003.125-1.303 5.992 5.992 0 001.056-3.841 5.941 5.941 0 00-1.051-3.811 3.767 3.767 0 00-3.113-1.299 3.845 3.845 0 00-3.147 1.307 5.846 5.846 0 00-1.077 3.803zM84.886 50.032a3.488 3.488 0 01-1.29 2.908 5.84 5.84 0 01-3.692 1.018H78.44v4.896h-1.447v-12.45h3.227q4.668 0 4.667 3.628zm-6.447 2.682h1.303a4.838 4.838 0 002.785-.622 2.292 2.292 0 00.86-1.992 2.145 2.145 0 00-.809-1.84 4.232 4.232 0 00-2.52-.604h-1.619v5.058z" fill="#04080a"/><path d="M68.536 0L0 39.24v78.482l68.522 39.238 68.522-39.238V39.24zm0 8.111l61.426 35.184v70.371l-61.44 35.184-61.44-35.184v-70.37z" fill="#1d1d1b"/><path d="M50.647 82.87a8.649 8.649 0 006.025 2.693c2.747 0 5.072-1.852 5.072-4.51 0-3.04-2.713-4.54-5.813-4.54h-1.69l-.811-1.853 5.425-6.324a11.253 11.253 0 011.551-1.605v-.072a16.637 16.637 0 01-2.114.106h-8.42v-3.004h14.866v2.199l-6.763 7.758c3.276.315 7.29 2.41 7.29 7.23 0 4.194-3.345 7.898-8.453 7.898a11.439 11.439 0 01-8.068-3.356zM75.478 85.708c5.568 0 9.23-3.278 9.23-9.439 0-6.095-3.7-9.37-9.23-9.37h-4.543v18.809h4.543zM67.445 63.87h8.28c7.575 0 12.575 4.543 12.575 12.4 0 7.889-5 12.467-12.576 12.467h-8.279V63.87z" fill="#e01f26"/><path fill="#1d1d1b" d="M35.557 63.84L3.746 45.44l3.541-6.084 31.811 18.4-3.541 6.084zM101.394 63.84l-3.541-6.084 32.405-18.4 3.541 6.084-32.405 18.4zM64.981 117.731h7.083v33.961h-7.083z"/></svg>